<?xml version="1.0" standalone="no"?>
<!DOCTYPE svg PUBLIC "-//W3C//DTD SVG 20010904//EN"
 "http://www.w3.org/TR/2001/REC-SVG-20010904/DTD/svg10.dtd">
<svg version="1.0" xmlns="http://www.w3.org/2000/svg"
 width="1076.000000pt" height="1016.000000pt" viewBox="0 0 1076.000000 1016.000000"
 preserveAspectRatio="xMidYMid meet">

<g transform="translate(0.000000,1016.000000) scale(0.100000,-0.100000)"
fill="#000000" stroke="none">
<path d="M5 10148 c-3 -7 -4 -1883 -3 -4168 l3 -4155 168 -3 167 -2 0 4170 0
4170 -165 0 c-123 0 -167 -3 -170 -12z"/>
<path d="M2610 5990 l0 -4170 405 0 405 0 0 585 0 585 -118 0 c-66 0 -174 3
-240 7 l-122 6 0 2987 0 2987 122 6 c66 4 174 7 240 7 l118 0 0 585 0 585
-405 0 -405 0 0 -4170z"/>
<path d="M4770 7122 c0 -292 3 -322 32 -322 4 0 8 135 8 300 0 289 -1 300 -20
310 -20 11 -20 8 -20 -288z"/>
<path d="M4770 5925 c0 -362 -12 -335 108 -245 l72 54 0 192 0 192 -72 55
c-119 89 -108 114 -108 -248z"/>
<path d="M4788 5046 c-16 -12 -18 -39 -18 -310 0 -163 4 -296 9 -296 28 0 31
34 29 323 -3 279 -4 295 -20 283z"/>
<path d="M0 615 c0 -13 526 -15 4675 -15 4149 0 4675 2 4675 15 0 13 -526 15
-4675 15 -4149 0 -4675 -2 -4675 -15z"/>
</g>
</svg>
